<svg width="81" height="83" viewBox="0 0 81 83" fill="none" xmlns="http://www.w3.org/2000/svg">
<path d="M80.6862 49.7011C80.2006 48.2397 78.9284 47.2217 77.2829 46.9773C76.5072 46.8622 75.6186 46.9113 74.5673 47.1267C72.7348 47.5024 71.3752 47.6453 70.383 47.6732C74.1281 41.39 77.1735 34.2248 78.9267 27.48C81.7615 16.5742 80.2466 11.6059 78.4764 9.35849C73.7915 3.41042 66.9563 0.214818 58.7098 0.116861C54.3111 0.0635138 50.4491 0.926542 48.4348 1.547C46.5591 1.21837 44.5421 1.03472 42.4258 1.00071C38.4594 0.93788 34.9546 1.79701 31.9598 3.56284C30.3014 3.00595 27.6408 2.22062 24.5678 1.71931C17.3403 0.540289 11.5154 1.45908 7.2548 4.44984C2.09549 8.07111 -0.296349 14.3627 0.146064 23.15C0.286364 25.94 1.85717 34.4285 4.33019 42.479C5.75153 47.1061 7.26714 50.9487 8.83495 53.9008C11.0582 58.087 13.4372 60.5522 16.1079 61.4374C17.605 61.9331 20.3248 62.28 23.1856 59.913C23.5481 60.3491 24.0317 60.7827 24.6739 61.1853C25.4891 61.6963 26.4862 62.1138 27.4818 62.3612C31.0703 63.2527 34.4315 63.0296 37.2991 61.7803C37.3166 62.287 37.3303 62.7712 37.3419 63.1893C37.361 63.8676 37.3797 64.5324 37.4048 65.1542C37.5746 69.3591 37.8625 72.6285 38.7155 74.9159C38.7623 75.0419 38.8253 75.2336 38.8919 75.4367C39.3173 76.7316 40.0291 78.8989 41.8394 80.5965C43.7143 82.3547 45.982 82.8941 48.0588 82.8939C49.1004 82.8939 50.0943 82.7583 50.9658 82.5726C54.0732 81.911 57.602 80.9028 60.1547 77.2912C62.5681 73.8769 63.7413 68.7344 63.9537 60.6312C63.9812 60.4022 64.0066 60.1835 64.0311 59.9749C64.0476 59.8342 64.0644 59.6903 64.0814 59.5468L64.6501 59.5965L64.7966 59.6063C67.9614 59.7496 71.8311 59.0827 74.2076 57.9858C76.0855 57.1198 82.1031 53.9633 80.6862 49.7011Z" fill="black"/>
<path d="M75.275 50.5301C65.8651 52.4588 65.2182 49.2931 65.2182 49.2931C75.1536 34.6445 79.3068 16.0503 75.7226 11.4994C65.9446 -0.914388 49.0184 4.95655 48.736 5.10897L48.645 5.12514C46.786 4.74167 44.7054 4.51323 42.3671 4.47531C38.1092 4.40598 34.8795 5.58444 32.4288 7.43113C32.4288 7.43113 2.23411 -4.92878 3.63842 22.976C3.93716 28.9126 12.2016 67.8946 22.0591 56.1202C25.662 51.8147 29.1431 48.1743 29.1431 48.1743C30.8722 49.3156 32.9421 49.8978 35.1121 49.6886L35.2806 49.5465C35.2282 50.081 35.2522 50.6039 35.3481 51.2229C32.8087 54.0421 33.5549 54.5371 28.4785 55.5754C23.3418 56.6273 26.3594 58.5 28.3296 58.9894C30.718 59.5829 36.2438 60.4236 39.9775 55.2302L39.8286 55.8228C40.8236 56.6146 41.5223 60.9736 41.4052 64.925C41.2881 68.8766 41.2099 71.5894 41.9939 73.7085C42.7779 75.8275 43.5593 80.5952 50.2327 79.1744C55.809 77.987 58.6986 74.91 59.1006 69.7773C59.3859 66.1284 60.0314 66.6678 60.0722 63.4055L60.59 61.861C61.1871 56.9146 60.6849 55.3189 64.1203 56.0611L64.9552 56.1339C67.4838 56.2483 70.7932 55.7298 72.7355 54.8328C76.918 52.9041 79.3989 49.684 75.275 50.5301Z" fill="#336791"/>
<path d="M34.1962 25.6309C33.3484 25.5136 32.5803 25.6222 32.1918 25.9144C31.9731 26.0789 31.9055 26.2694 31.8874 26.4006C31.8386 26.7481 32.0836 27.1321 32.234 27.3302C32.6598 27.891 33.282 28.2765 33.8978 28.3615C33.987 28.3737 34.0757 28.3797 34.164 28.3797C35.191 28.3797 36.1245 27.5852 36.2068 26.9988C36.3097 26.2644 35.2366 25.7748 34.1962 25.6309Z" fill="white"/>
<path d="M62.288 25.6542C62.2072 25.0785 61.1759 24.9144 60.1976 25.0495C59.2207 25.1848 58.2732 25.6229 58.3523 26.1999C58.4159 26.6486 59.231 27.4146 60.1962 27.4144C60.2776 27.4144 60.3599 27.409 60.4428 27.3975C61.0871 27.3088 61.5598 26.9023 61.7843 26.6679C62.1264 26.3111 62.3241 25.9129 62.288 25.6542Z" fill="white"/>
<path d="M78.4063 50.311C78.0475 49.2329 76.8927 48.8858 74.974 49.2797C69.277 50.448 67.2369 49.6386 66.5668 49.1485C70.9951 42.4454 74.6378 34.3432 76.603 26.7834C77.534 23.2024 78.0482 19.8769 78.0901 17.1665C78.1365 14.1909 77.6268 12.0048 76.5749 10.6693C72.3343 5.28518 66.1107 2.3972 58.577 2.31783C53.3979 2.26003 49.022 3.57715 48.1736 3.94742C46.3872 3.50596 44.4396 3.23495 42.3196 3.20038C38.4314 3.13792 35.0707 4.06285 32.2881 5.94802C31.0795 5.50117 27.9558 4.43572 24.1361 3.82437C17.5319 2.76766 12.2841 3.56823 8.53901 6.20453C4.07035 9.35031 2.00738 14.9735 2.40714 22.9175C2.54164 25.5904 4.0741 33.8123 6.49287 41.6864C9.67656 52.05 13.1371 57.9171 16.7786 59.1238C17.2047 59.265 17.6963 59.3639 18.2381 59.3639C19.5664 59.3639 21.1948 58.7689 22.8893 56.7449C25.7037 53.3805 28.3314 50.5613 29.3001 49.537C30.7315 50.3006 32.3038 50.7268 33.9124 50.7695C33.9152 50.8114 33.9195 50.8532 33.9232 50.8948C33.6006 51.2751 33.3359 51.6084 33.1103 51.893C31.9959 53.2986 31.7639 53.5911 28.1767 54.3252C27.1565 54.5343 24.4461 55.0893 24.4066 56.9769C24.3634 59.0392 27.6099 59.9054 27.9799 59.9972C29.269 60.3179 30.5108 60.476 31.6951 60.476C34.5756 60.4758 37.1101 59.5353 39.1359 57.7154C39.0734 65.0678 39.3821 72.3127 40.2704 74.5202C40.9979 76.3271 42.7756 80.7435 48.3908 80.7432C49.2145 80.7432 50.1216 80.648 51.1192 80.4355C56.9793 79.187 59.5239 76.6135 60.5085 70.9398C61.0352 67.9076 61.9393 60.6666 62.3643 56.7826C63.2617 57.0607 64.417 57.1881 65.6659 57.1879C68.2706 57.1879 71.276 56.638 73.1609 55.7687C75.2781 54.7917 79.0992 52.3939 78.4063 50.311ZM64.4509 24.0651C64.4314 25.2118 64.2726 26.2527 64.1043 27.3393C63.9232 28.5079 63.7357 29.7161 63.6886 31.1829C63.642 32.6102 63.8214 34.0943 63.995 35.5293C64.3456 38.4278 64.7053 41.4121 63.3126 44.3568C63.0962 43.9748 62.8872 43.558 62.6956 43.0965C62.5226 42.6796 62.1468 42.0099 61.6266 41.0829C59.6017 37.475 54.8603 29.0262 57.2875 25.5785C58.0104 24.5521 59.8451 23.4972 64.4509 24.0651ZM58.8683 4.63981C65.6184 4.78796 70.9578 7.29711 74.7385 12.0972C77.638 15.7791 74.4451 32.5322 65.202 46.9851C65.1107 46.8698 65.0177 46.7535 64.9216 46.6341C64.8832 46.5864 64.8441 46.5378 64.8046 46.4888C67.1931 42.5692 66.726 38.6912 66.3103 35.2529C66.1395 33.8419 65.9783 32.5091 66.0193 31.2574C66.0617 29.9303 66.2383 28.7925 66.4089 27.6921C66.619 26.336 66.8324 24.933 66.7735 23.2788C66.8175 23.1054 66.8353 22.9004 66.8122 22.6571C66.6618 21.0708 64.8394 16.3241 61.1247 12.0271C59.0929 9.67727 56.1296 7.04729 52.0837 5.27347C53.824 4.9151 56.2039 4.58089 58.8683 4.63981ZM21.0963 55.2635C19.2295 57.4936 17.9402 57.0663 17.5164 56.926C14.7539 56.0103 11.5489 50.2093 8.72308 41.01C6.27793 33.0502 4.84893 25.0462 4.73594 22.8017C4.37883 15.7034 6.11051 10.7563 9.88309 8.09787C16.0226 3.77158 26.1168 6.36104 30.1727 7.67444C30.1144 7.73151 30.0538 7.78504 29.996 7.84303C23.3403 14.5222 23.4982 25.9335 23.5145 26.631C23.5139 26.9001 23.5365 27.2811 23.5678 27.8053C23.6823 29.7245 23.8953 33.2967 23.3261 37.3421C22.7969 41.1013 23.9631 44.7807 26.5251 47.4369C26.7904 47.7118 27.0672 47.97 27.3533 48.213C26.2127 49.4266 23.7343 52.1101 21.0963 55.2635ZM28.2087 45.8337C26.1437 43.693 25.2059 40.7151 25.6354 37.663C26.2367 33.3894 26.0146 29.6676 25.8955 27.6681C25.8788 27.3884 25.864 27.1432 25.8552 26.9497C26.8276 26.0932 31.3335 23.6941 34.5467 24.4257C36.0134 24.7595 36.9066 25.7516 37.2781 27.4583C39.2008 36.2936 37.5327 39.9762 36.1924 42.9354C35.9161 43.545 35.6551 44.1213 35.4321 44.7175L35.2595 45.1783C34.8221 46.3436 34.4152 47.4269 34.1631 48.4557C31.968 48.449 29.8325 47.5174 28.2087 45.8337ZM28.5456 57.7494C27.9047 57.5903 27.3282 57.3139 26.99 57.0847C27.2725 56.9525 27.7753 56.773 28.6472 56.5945C32.8673 55.7311 33.5188 55.122 34.942 53.3265C35.2684 52.9149 35.6383 52.4482 36.1505 51.8798C36.9135 51.0311 37.263 51.1742 37.8958 51.435C38.4087 51.6459 38.9082 52.2846 39.1108 52.9876C39.2066 53.3196 39.3143 53.9499 38.9621 54.44C35.989 58.5762 31.6569 58.523 28.5456 57.7494ZM50.6304 78.1701C45.4679 79.2692 43.6401 76.6518 42.4355 73.6598C41.6581 71.7279 41.2761 63.0172 41.5472 53.3978C41.5507 53.2698 41.5324 53.1461 41.4968 53.03C41.466 52.8056 41.4185 52.5787 41.3526 52.3502C40.9493 50.9506 39.967 49.7797 38.7885 49.2944C38.3203 49.1016 37.4607 48.7479 36.4279 49.0104C36.6483 48.1087 37.0302 47.0906 37.4442 45.988L37.618 45.5241C37.8137 45.0012 38.0589 44.4596 38.3186 43.8863C39.7212 40.79 41.6422 36.5492 39.5573 26.9685C38.7763 23.3801 36.1686 21.6279 32.2153 22.0348C29.8452 22.2784 27.6771 23.2287 26.5956 23.7735C26.3631 23.8906 26.1504 24.0036 25.9518 24.1138C26.2535 20.4981 27.3941 13.7413 31.6599 9.4663C34.3456 6.7748 37.9227 5.44559 42.281 5.51715C50.8683 5.65693 56.375 10.0358 59.4828 13.6848C62.1606 16.8293 63.6108 19.9966 64.1896 21.7048C59.8374 21.2652 56.8775 22.119 55.3768 24.2504C52.1125 28.8869 57.1628 37.8864 59.59 42.2114C60.035 43.0041 60.4192 43.6891 60.5401 43.9802C61.3304 45.8836 62.3537 47.1542 63.1008 48.0819C63.3298 48.3661 63.552 48.6418 63.721 48.8825C62.4029 49.2602 60.0352 50.1325 60.2509 54.4934C60.0769 56.6817 58.8393 66.9265 58.2107 70.5461C57.3809 75.328 55.6099 77.1093 50.6304 78.1701ZM72.179 53.6672C70.8312 54.2889 68.5755 54.7553 66.4327 54.8553C64.0659 54.9655 62.8612 54.5919 62.5778 54.3622C62.4446 51.6446 63.4628 51.3606 64.5401 51.06C64.7094 51.0126 64.8746 50.9667 65.034 50.9113C65.1331 50.9915 65.2416 51.071 65.3604 51.1489C67.2627 52.3965 70.6557 52.5311 75.4456 51.5487C75.4632 51.545 75.4807 51.5417 75.4981 51.5381C74.8522 52.1383 73.7466 52.9439 72.179 53.6672Z" fill="white"/>
</svg>
