<svg width="129" height="129" viewBox="0 0 129 129" fill="none" xmlns="http://www.w3.org/2000/svg">
<path d="M0.683105 44.6807C0.683105 23.7111 0.683105 13.2263 7.19749 6.71189C13.7119 0.19751 24.1967 0.19751 45.1663 0.19751H84.517C105.487 0.19751 115.971 0.19751 122.485 6.71189C129 13.2263 129 23.7111 129 44.6807V84.0314C129 105.001 129 115.485 122.485 122C115.971 128.514 105.487 128.514 84.517 128.514H45.1663C24.1967 128.514 13.7119 128.514 7.19749 122C0.683105 115.485 0.683105 105.001 0.683105 84.0314V44.6807Z" fill="#4945FF"/>
<path d="M89.2217 39.1202H46.0214V61.148H68.0494V83.1755H90.0769V39.9757C90.0769 39.5032 89.6938 39.1202 89.2217 39.1202Z" fill="white"/>
<path d="M68.0494 61.148L67.1938 61.148V62.0035H68.0492L68.0494 61.148Z" fill="white"/>
<path d="M46.0214 61.148L67.1938 61.148C67.6665 61.148 68.0492 61.5314 68.0492 62.0035L68.0494 83.1755L46.8769 83.1756C46.4044 83.1756 46.0214 82.793 46.0214 82.3203V61.148Z" fill="#9593FF"/>
<path d="M68.0494 83.1755H90.0769L68.7794 104.473C68.51 104.742 68.0494 104.552 68.0494 104.171L68.0494 83.1755Z" fill="#9593FF"/>
<path d="M46.0214 61.148H25.0264C24.6454 61.148 24.4546 60.6873 24.724 60.4178L46.0214 39.1202V61.148Z" fill="#9593FF"/>
</svg>
